<svg width="908" height="461" viewBox="0 0 908 461" fill="none" xmlns="http://www.w3.org/2000/svg">
<path d="M206.095 356.248C205.529 356.275 204.968 356.125 204.489 355.819C204.01 355.514 203.636 355.067 203.417 354.54C203.198 354.013 203.146 353.431 203.266 352.873C203.387 352.315 203.675 351.808 204.091 351.42C204.161 351.141 204.211 350.94 204.281 350.661C204.256 350.6 204.23 350.539 204.205 350.479C203.635 349.121 202.679 347.963 201.457 347.151C200.236 346.339 198.804 345.909 197.34 345.914C195.877 345.92 194.448 346.361 193.232 347.182C192.017 348.003 191.069 349.168 190.509 350.53C188.269 355.966 185.417 361.411 184.715 367.159C184.405 369.7 184.536 372.275 185.1 374.771C179.839 363.207 177.107 350.638 177.089 337.917C177.088 334.725 177.264 331.535 177.616 328.362C177.908 325.762 178.312 323.179 178.828 320.616C181.648 306.705 187.703 293.667 196.495 282.572C200.75 280.233 204.192 276.635 206.355 272.264C207.139 270.693 207.693 269.016 208 267.285C207.52 267.348 207.032 267.388 206.552 267.42C206.403 267.428 206.245 267.436 206.096 267.444L206.039 267.446C205.512 267.47 204.988 267.34 204.533 267.071C204.077 266.802 203.708 266.406 203.47 265.931C203.233 265.456 203.136 264.922 203.193 264.393C203.249 263.864 203.457 263.362 203.789 262.949C203.997 262.692 204.204 262.435 204.412 262.179C204.726 261.782 205.049 261.394 205.364 260.997C205.4 260.96 205.434 260.92 205.466 260.878C205.828 260.426 206.19 259.982 206.552 259.53C205.891 258.497 205.003 257.631 203.955 257.001C200.327 254.86 195.322 256.343 192.702 259.649C190.074 262.956 189.578 267.594 190.491 271.725C191.388 275.24 192.873 278.576 194.882 281.589C194.685 281.843 194.48 282.089 194.284 282.342C190.687 287.002 187.553 292.005 184.925 297.281C185.564 291.371 184.802 285.392 182.7 279.837C180.57 274.659 176.578 270.299 173.062 265.823C168.839 260.447 160.18 262.794 159.436 269.609C159.428 269.675 159.421 269.74 159.415 269.806C159.937 270.103 160.448 270.418 160.948 270.752C161.576 271.175 162.063 271.779 162.345 272.485C162.626 273.192 162.69 273.968 162.526 274.711C162.363 275.454 161.98 276.131 161.429 276.651C160.877 277.172 160.183 277.512 159.436 277.628L159.359 277.64C159.546 279.537 159.874 281.416 160.343 283.262C161.702 288.416 164.102 293.231 167.394 297.406C170.686 301.581 174.798 305.026 179.473 307.525C179.78 307.683 180.08 307.842 180.386 307.993C177.746 315.531 176.09 323.383 175.46 331.352C175.103 336.053 175.124 340.775 175.523 345.473L175.5 345.307C174.492 340.083 171.727 335.369 167.67 331.962C161.644 326.975 153.131 325.138 146.63 321.129C145.939 320.682 145.136 320.444 144.315 320.442C143.494 320.44 142.69 320.674 141.997 321.118C141.304 321.561 140.751 322.195 140.404 322.945C140.057 323.695 139.929 324.529 140.037 325.349C140.046 325.407 140.055 325.465 140.064 325.524C141.033 325.921 141.976 326.38 142.889 326.895C143.411 327.192 143.922 327.507 144.422 327.841C145.051 328.264 145.538 328.868 145.819 329.574C146.101 330.281 146.164 331.057 146.001 331.8C145.837 332.543 145.455 333.22 144.903 333.74C144.352 334.261 143.657 334.601 142.91 334.717L142.834 334.729C142.779 334.737 142.732 334.745 142.677 334.753C144.332 338.737 146.656 342.403 149.546 345.592C153.117 349.452 157.432 352.537 162.228 354.657C167.024 356.777 172.199 357.888 177.435 357.922H177.443C178.865 364.146 180.925 370.205 183.589 376H205.545C205.624 375.754 205.694 375.5 205.765 375.255C203.733 375.383 201.693 375.261 199.69 374.89C201.319 372.876 202.948 370.846 204.577 368.832C204.613 368.794 204.647 368.755 204.679 368.713C205.505 367.682 206.34 366.66 207.166 365.629L207.166 365.628C207.21 362.468 206.851 359.316 206.096 356.249L206.095 356.248Z" fill="#024410"/>
<path d="M649.368 343.111C649.79 343.5 650.322 343.751 650.892 343.828C651.461 343.905 652.041 343.806 652.552 343.543C653.063 343.28 653.481 342.866 653.749 342.358C654.017 341.849 654.122 341.271 654.05 340.701C654.177 340.44 654.268 340.253 654.395 339.993C654.454 339.962 654.513 339.932 654.571 339.902C655.894 339.229 657.385 338.961 658.859 339.133C660.333 339.305 661.723 339.908 662.855 340.867C663.987 341.826 664.81 343.098 665.221 344.523C665.632 345.949 665.613 347.463 665.166 348.878C663.382 354.524 662.068 360.577 658.89 365.46C657.484 367.618 655.714 369.515 653.66 371.068C665.233 365.599 675.495 357.705 683.749 347.924C685.817 345.467 687.747 342.897 689.529 340.224C690.988 338.032 692.347 335.781 693.606 333.47C700.429 320.922 704.177 306.934 704.542 292.656C702.756 288.079 702.416 283.064 703.568 278.288C703.978 276.567 704.634 274.914 705.518 273.381C705.849 273.743 706.202 274.092 706.554 274.43C706.665 274.534 706.782 274.642 706.893 274.746L706.935 274.785C707.329 275.147 707.819 275.388 708.347 275.479C708.874 275.569 709.417 275.505 709.909 275.295C710.402 275.084 710.822 274.736 711.121 274.291C711.42 273.847 711.584 273.326 711.593 272.791C711.599 272.458 711.604 272.125 711.61 271.792C711.622 271.281 711.624 270.772 711.636 270.261C711.632 270.208 711.632 270.155 711.634 270.103C711.646 269.519 711.652 268.941 711.664 268.356C712.846 267.992 714.097 267.906 715.318 268.104C719.519 268.823 722.442 273.23 722.334 277.485C722.232 281.745 719.611 285.639 716.227 288.224C713.254 290.344 709.941 291.943 706.431 292.952C706.419 293.276 706.418 293.599 706.407 293.922C706.179 299.856 705.37 305.753 703.991 311.528C707.324 306.562 711.789 302.457 717.018 299.551C722.024 296.955 727.947 296.204 733.574 295.052C740.333 293.669 745.532 301.125 741.695 306.857C741.658 306.912 741.62 306.967 741.583 307.023C740.986 306.911 740.385 306.82 739.781 306.75C739.019 306.665 738.25 306.813 737.574 307.173C736.898 307.533 736.346 308.089 735.992 308.768C735.637 309.447 735.496 310.217 735.586 310.978C735.677 311.738 735.995 312.454 736.5 313.03L736.551 313.089C735.178 314.428 733.706 315.66 732.146 316.775C727.754 319.856 722.772 321.997 717.513 323.063C712.254 324.13 706.832 324.098 701.586 322.972C701.245 322.893 700.91 322.82 700.574 322.736C697.74 330.262 693.938 337.387 689.265 343.932C686.497 347.784 683.421 351.406 680.069 354.763L680.195 354.65C684.361 351.286 689.56 349.462 694.915 349.486C702.821 349.578 710.616 353.718 718.257 354.874C719.083 354.98 719.861 355.321 720.499 355.855C721.137 356.389 721.609 357.095 721.86 357.888C722.11 358.682 722.128 359.53 721.912 360.334C721.696 361.138 721.254 361.863 720.64 362.424C720.595 362.463 720.55 362.502 720.506 362.541C719.496 362.215 718.467 361.952 717.425 361.754C716.827 361.641 716.227 361.551 715.623 361.481C714.861 361.396 714.092 361.544 713.416 361.904C712.74 362.264 712.188 362.82 711.833 363.499C711.479 364.178 711.337 364.948 711.428 365.709C711.519 366.469 711.837 367.185 712.341 367.761L712.393 367.82C712.431 367.862 712.462 367.899 712.5 367.941C708.635 369.928 704.456 371.234 700.148 371.803C694.877 372.445 689.53 372.004 684.436 370.507C679.341 369.011 674.606 366.489 670.521 363.098L670.515 363.093C665.38 366.957 659.857 370.277 654.036 373L637 358.675C637.098 358.434 637.208 358.193 637.312 357.957C638.805 359.382 640.468 360.619 642.262 361.64C642.303 359.027 642.354 356.402 642.394 353.788C642.39 353.736 642.39 353.683 642.392 353.63C642.418 352.297 642.434 350.966 642.46 349.633L642.461 349.632C644.473 347.171 646.794 344.979 649.367 343.11L649.368 343.111Z" fill="#024410"/>
<path d="M282.501 222.875C281.874 222.73 281.289 222.456 280.785 222.07C280.281 221.685 279.871 221.198 279.585 220.645C279.298 220.091 279.142 219.484 279.126 218.866C279.111 218.248 279.237 217.635 279.496 217.069L268 206.862L275.907 205L285.611 214.978C286.574 215.458 287.32 216.26 287.708 217.232C288.095 218.203 288.098 219.278 287.714 220.251C287.331 221.225 286.588 222.029 285.628 222.513C284.667 222.997 283.554 223.125 282.501 222.875H282.501Z" fill="#FFB6B6"/>
<path d="M247.627 194.655L235.596 159.648C234.645 156.872 234.838 153.834 236.132 151.2C237.426 148.566 239.716 146.551 242.498 145.597C244.04 145.071 245.678 144.889 247.298 145.065C248.917 145.241 250.478 145.77 251.869 146.615C253.261 147.46 254.448 148.6 255.348 149.954C256.247 151.308 256.837 152.842 257.075 154.449L261.884 186.95L282 207.485L276.709 215L247.627 194.655Z" fill="#FF6F29"/>
<path d="M228.001 359H236.132L240 327H228L228.001 359Z" fill="#FFB6B6"/>
<path d="M224.725 354.835L238.409 354V359.993L251.419 369.176C252.061 369.63 252.545 370.282 252.8 371.036C253.054 371.791 253.066 372.609 252.834 373.371C252.602 374.133 252.137 374.799 251.508 375.272C250.879 375.745 250.119 376 249.338 376H223L224.725 354.835Z" fill="#2F2E41"/>
<path d="M235.042 203.592C235.042 203.592 232.436 200.776 227.441 207.428C222.826 213.452 223.055 214.628 223.651 222.28C224.136 227.752 219.382 255.253 224.12 259.928L227.94 348.008C227.94 348.008 239.53 351.363 240.075 345.734L270 233.734L266.425 205.098L235.042 203.592Z" fill="#2F2E41"/>
<path d="M292.31 358L300 353.878L287.35 323L276 329.084L292.31 358Z" fill="#FFB6B6"/>
<path d="M287 356.229L298.098 349L300.8 354.082L315.851 355.67C316.595 355.748 317.294 356.07 317.848 356.589C318.402 357.107 318.781 357.795 318.93 358.552C319.079 359.309 318.989 360.096 318.675 360.796C318.361 361.497 317.839 362.076 317.184 362.448L303.524 370.212L300.25 372.073L295.099 375L287 356.229Z" fill="#2F2E41"/>
<path d="M223.853 219.139C223.853 219.139 223.7 233.195 222.411 241.428C221.163 248.929 222.78 256.627 226.939 262.977C229.965 267.488 234.422 271.693 240.852 273.419L286.017 348C286.017 348 297.916 345.208 295.732 340.053L269.239 228.098L252.481 205L223.853 219.139Z" fill="#2F2E41"/>
<path d="M223.357 179.364L222 223L267.263 210.494L268.06 208.337L270 200.989C270 200.989 265.512 190.419 266.427 165.804L254.994 135.37L236.883 135L236.782 135.101C231.063 140.802 226.844 147.826 224.501 155.549C222.159 163.272 221.766 171.453 223.357 179.364Z" fill="#FF6F29"/>
<path d="M313.979 197.808C313.391 197.997 312.772 198.047 312.164 197.956C311.556 197.864 310.974 197.633 310.46 197.278C309.946 196.924 309.511 196.454 309.187 195.903C308.863 195.352 308.658 194.732 308.585 194.088L294 190.72L299.556 185L312.554 189.076C313.587 189.018 314.604 189.363 315.412 190.045C316.22 190.726 316.763 191.697 316.939 192.773C317.114 193.85 316.91 194.957 316.365 195.885C315.819 196.813 314.97 197.497 313.979 197.808V197.808Z" fill="#FFB6B6"/>
<path d="M268.951 190.125L240.856 165.715C238.632 163.778 237.256 161.026 237.032 158.063C236.808 155.1 237.754 152.168 239.662 149.911C240.72 148.662 242.036 147.664 243.517 146.989C244.998 146.313 246.608 145.976 248.232 146.001C249.856 146.027 251.455 146.414 252.915 147.136C254.375 147.857 255.66 148.895 256.679 150.177L277.296 176.096L305 183.728L304.264 193L268.951 190.125Z" fill="#FF6F29"/>
<path d="M264 105.51C263.998 110.457 262.163 115.219 258.867 118.83C255.572 122.441 251.063 124.631 246.252 124.958C241.442 125.284 236.691 123.721 232.962 120.586C229.232 117.452 226.803 112.979 226.166 108.075C225.53 103.171 226.734 98.2014 229.534 94.174C232.333 90.1465 236.52 87.362 241.246 86.3845C245.972 85.4069 250.883 86.3095 254.984 88.9093C259.086 91.5091 262.071 95.6118 263.335 100.386C263.777 102.056 264.001 103.779 264 105.51Z" fill="#FFB8B8"/>
<path d="M257.273 79.7197C255.694 79.6732 256.236 76.7202 254.964 75.7781C254.958 75.8067 254.951 75.8352 254.945 75.8637C254.778 76.5016 254.409 77.0695 253.893 77.4837C253.376 77.898 252.739 78.1368 252.076 78.1649C251.412 78.193 250.757 78.0089 250.207 77.6398C249.657 77.2707 249.241 76.736 249.02 76.1145C248.809 75.3956 248.427 74.7375 247.906 74.1955C247.386 73.6535 246.741 73.2435 246.028 73C245.949 75.7371 243.862 78.1127 241.373 79.2949C238.884 80.4771 236.046 80.6738 233.286 80.7143C230.527 80.7547 227.728 80.6631 225.053 81.3331C222.377 82.0031 219.774 83.5783 218.631 86.0706C217.488 88.5628 218.304 91.9941 220.803 93.1541C218.867 93.1643 217.224 94.7499 216.554 96.553C216.005 98.4025 215.862 100.347 216.134 102.256C216.678 109.325 218.005 116.935 223.192 121.809C227.146 125.525 232.804 127.021 238.249 127C243.694 126.978 242.736 126.482 248.001 125.103C248.001 125.103 253.006 110.865 251.746 109.464C250.485 108.063 249.439 106.271 249.667 104.407C249.895 102.543 251.914 100.873 253.666 101.583C253.371 100.836 253.149 100.693 253.01 100.731C253.099 100.519 253.176 100.302 253.242 100.082C253.571 98.9585 254.165 97.9291 254.974 97.0781C255.783 96.2271 256.783 95.5787 257.894 95.1862C259.016 94.8249 260.222 94.813 261.351 95.1519C262.48 95.4909 263.477 96.1645 264.208 97.0824C269.973 91.7177 266.397 79.9886 257.273 79.7197Z" fill="#2F2E41"/>
<path d="M592.499 222.875C593.126 222.73 593.711 222.456 594.215 222.07C594.719 221.685 595.129 221.198 595.415 220.645C595.702 220.091 595.858 219.484 595.874 218.866C595.889 218.248 595.763 217.635 595.504 217.069L607 206.862L599.093 205L589.389 214.978C588.426 215.458 587.68 216.26 587.292 217.232C586.905 218.203 586.902 219.278 587.286 220.251C587.669 221.225 588.412 222.029 589.372 222.513C590.333 222.997 591.446 223.125 592.499 222.875H592.499Z" fill="#9E616A"/>
<path d="M598.291 215L593 207.485L613.116 186.95L617.925 154.449C618.163 152.842 618.753 151.308 619.652 149.954C620.552 148.6 621.739 147.46 623.131 146.615C624.522 145.77 626.083 145.241 627.702 145.065C629.322 144.889 630.96 145.071 632.502 145.597C635.284 146.551 637.574 148.566 638.868 151.2C640.162 153.834 640.355 156.872 639.404 159.648L627.373 194.655L598.291 215Z" fill="#FF6F29"/>
<path d="M646.998 359H638.19L634 327H647L646.998 359Z" fill="#9E616A"/>
<path d="M651 376H625.54C624.785 376 624.05 375.745 623.442 375.272C622.834 374.799 622.385 374.133 622.16 373.371C621.936 372.609 621.947 371.791 622.194 371.036C622.44 370.282 622.907 369.63 623.529 369.177L636.105 359.993V354L649.332 354.835L651 376Z" fill="#2F2E41"/>
<path d="M638.967 205C638.967 205 645.923 217.239 651.062 223.826C655.81 229.792 655.199 232.96 654.586 240.538C654.087 245.957 655.079 256.161 650.204 260.79L646.274 348.018C646.274 348.018 634.35 351.34 633.788 345.766L603 234.85L606.679 206.491L638.967 205Z" fill="#2F2E41"/>
<path d="M582.69 358L575 353.878L587.65 323L599 329.084L582.69 358Z" fill="#9E616A"/>
<path d="M578.648 375L573.336 372.073L569.96 370.212L555.873 362.448C555.198 362.076 554.659 361.497 554.335 360.796C554.011 360.096 553.919 359.309 554.072 358.552C554.226 357.795 554.617 357.107 555.188 356.589C555.759 356.07 556.481 355.748 557.247 355.67L572.768 354.082L575.556 349L587 356.229L578.648 375Z" fill="#2F2E41"/>
<path d="M650.172 219.139C650.172 219.139 650.323 233.195 651.594 241.428C652.826 248.929 651.23 256.627 647.128 262.977C644.143 267.488 639.746 271.693 633.403 273.419L588.849 348C588.849 348 577.11 345.208 579.264 340.053L605.399 228.098L621.931 205L650.172 219.139Z" fill="#2F2E41"/>
<path d="M637.836 135.101L637.736 135L619.84 135.37L608.542 165.882C609.446 190.56 605.011 201.157 605.011 201.157L606.929 208.523L601 245L658 233.318L651.102 179.477C652.675 171.546 652.286 163.344 649.972 155.601C647.657 147.859 643.488 140.816 637.836 135.101Z" fill="#FF6F29"/>
<path d="M560.152 197.808C560.765 197.997 561.412 198.047 562.047 197.956C562.681 197.864 563.288 197.633 563.825 197.278C564.361 196.924 564.814 196.454 565.153 195.903C565.491 195.352 565.705 194.732 565.781 194.088L581 190.72L575.203 185L561.639 189.076C560.562 189.018 559.501 189.363 558.657 190.045C557.814 190.726 557.247 191.697 557.064 192.773C556.881 193.85 557.094 194.957 557.663 195.885C558.232 196.813 559.118 197.497 560.152 197.808L560.152 197.808Z" fill="#9E616A"/>
<path d="M569.736 193L569 183.728L596.704 176.096L617.321 150.177C618.34 148.895 619.625 147.857 621.085 147.136C622.545 146.414 624.144 146.027 625.768 146.001C627.392 145.976 629.002 146.313 630.483 146.989C631.964 147.664 633.28 148.662 634.338 149.911C636.246 152.168 637.192 155.1 636.968 158.063C636.744 161.026 635.368 163.778 633.144 165.715L605.049 190.125L569.736 193Z" fill="#FF6F29"/>
<path d="M610.682 100.386C611.98 95.6118 615.044 91.5091 619.253 88.9093C623.463 86.3095 628.503 85.4069 633.353 86.3845C638.203 87.362 642.5 90.1465 645.373 94.174C648.247 98.2014 649.482 103.171 648.829 108.075C648.176 112.979 645.683 117.452 641.855 120.586C638.028 123.721 633.151 125.284 628.215 124.958C623.278 124.631 618.65 122.441 615.268 118.83C611.885 115.219 610.002 110.457 610 105.51C609.999 103.779 610.229 102.056 610.682 100.386Z" fill="#9E616A"/>
<path d="M616.727 80.0016C618.306 79.9553 637.954 80.9499 640.714 80.9902C643.473 81.0304 646.272 80.9393 648.947 81.6053C651.623 82.2713 654.226 83.8372 655.369 86.3146C656.512 88.792 656.776 94.9422 657.446 96.7345C657.995 98.573 658.138 100.506 657.866 102.404C657.322 109.43 655.995 116.995 650.808 121.84C646.854 125.534 641.196 127.021 635.751 127C630.306 126.978 631.264 126.485 625.999 125.114C625.999 125.114 620.994 110.961 622.254 109.569C623.514 108.176 624.561 106.395 624.333 104.542C624.105 102.689 622.086 101.029 620.334 101.734C620.629 100.992 620.851 100.85 620.99 100.888C620.901 100.677 620.824 100.461 620.758 100.242C620.429 99.1257 619.835 98.1024 619.026 97.2565C618.217 96.4105 617.217 95.766 616.106 95.3758C614.984 95.0167 613.778 95.0049 612.649 95.3418C611.52 95.6788 610.523 96.3484 609.792 97.2607C604.027 91.928 607.603 80.2688 616.727 80.0016Z" fill="#2F2E41"/>
<path d="M312.104 196.118C337.353 192.839 365.541 189.497 387.636 204.931C396.535 211.147 403.499 220.138 405.624 230.863C406.967 237.644 406.539 244.609 406.626 251.476C406.704 257.626 407.262 263.762 409.353 269.591C412.889 279.447 419.818 287.818 428.391 293.827C437.692 300.246 448.709 303.78 460.042 303.979C485.134 304.6 508.012 291.117 523.985 272.724C541.14 252.972 550.981 228.474 559.568 204.163C560.7 200.957 561.821 197.747 562.931 194.534C563.419 193.129 561.174 192.525 560.689 193.922C552.107 218.636 543.307 243.854 527.308 264.976C512.636 284.348 491.305 299.748 466.292 301.528C454.889 302.339 443.415 300.113 433.511 294.359C424.418 289.076 416.8 281.12 412.587 271.489C410.319 266.025 409.109 260.187 409.017 254.28C408.765 247.443 409.272 240.57 408.421 233.762C407.057 222.848 401.465 213.328 393.068 206.216C384.585 199.204 374.402 194.507 363.526 192.591C349.983 190.062 336.119 190.941 322.519 192.514C319.043 192.916 315.573 193.364 312.104 193.814C310.642 194.004 310.622 196.311 312.104 196.118Z" fill="#3F3D56"/>
<path d="M520.705 139.248C516.275 143.928 509.835 146.406 503.395 146.901C498.779 147.254 494.139 146.662 489.762 145.16C485.385 143.658 481.364 141.278 477.947 138.168C474.531 135.058 471.792 131.284 469.899 127.078C468.007 122.873 467.001 118.326 466.944 113.718C466.874 108.545 468.007 103.394 467.751 98.2199C467.115 85.4397 458.099 73.8255 459.061 61.0608L465.237 62.9681C461.094 61.6708 456.95 60.3735 452.807 59.0761C451.386 58.6983 450.024 58.1293 448.757 57.385C445.141 55.022 444.078 49.8095 445.816 45.8635C447.562 41.9174 451.589 39.2764 455.833 38.3961C458.721 37.8503 461.689 37.8687 464.57 38.4502C465.949 38.6949 467.312 39.0224 468.651 39.4309C472.556 38.1499 476.703 37.7707 480.778 38.3219C484.853 38.8731 488.748 40.3404 492.168 42.6124C496.325 45.4565 499.599 49.4022 501.618 54.0027C502.91 56.9049 503.664 60.0153 503.845 63.1843C504.311 71.8023 500.617 80.7291 501.145 89.0537C501.258 91.3305 501.77 93.5701 502.658 95.6716C507.236 106.274 521.629 110.467 525.236 121.441C527.246 127.549 525.136 134.568 520.705 139.248Z" fill="#2F2E41"/>
<path d="M523 305.07L517.154 311L491 291.752L499.629 283L523 305.07Z" fill="#9E616A"/>
<path d="M539 314.053L534.766 318.445L532.074 321.237L520.844 332.887C520.306 333.446 519.604 333.818 518.839 333.948C518.075 334.079 517.289 333.961 516.596 333.613C515.904 333.265 515.34 332.704 514.988 332.013C514.636 331.321 514.515 330.535 514.64 329.77L517.189 314.267L513 310.222L523.016 301L539 314.053Z" fill="#2F2E41"/>
<path d="M466 317.323L458.219 321L440 293.427L451.484 288L466 317.323Z" fill="#9E616A"/>
<path d="M478 330.453L472.655 333.063L469.258 334.722L455.082 341.643C454.402 341.975 453.635 342.079 452.893 341.94C452.151 341.801 451.472 341.426 450.956 340.87C450.44 340.314 450.114 339.606 450.025 338.849C449.936 338.092 450.088 337.327 450.461 336.664L457.999 323.246L455.531 318.096L467.783 313L478 330.453Z" fill="#2F2E41"/>
<path d="M479.287 164C479.287 164 486.112 176.187 491.154 182.747C495.812 188.687 495.212 191.841 494.611 199.388C494.121 204.783 495.094 214.944 490.312 219.554L488.222 266.627L514 296.391C514 296.391 503.578 311.313 503.027 305.763L464.864 270.012L444 193.723L447.609 165.485L479.287 164Z" fill="#2F2E41"/>
<path d="M490.125 178.102C490.125 178.102 490.281 192.121 491.584 200.333C492.847 207.814 491.211 215.492 487.004 221.825C483.943 226.324 479.435 230.519 472.93 232.24L450.689 268.453L463.043 303.537C463.043 303.537 445.286 313.688 447.494 308.547L426 262.932L444.215 187.038L461.167 164L490.125 178.102Z" fill="#2F2E41"/>
<path d="M477.451 94.1008L477.349 94L459.112 94.3693L447.598 124.782C448.519 149.38 444 159.943 444 159.943L445.954 167.285L446.756 169.441L498 192L490.97 138.333C492.573 130.427 492.177 122.252 489.819 114.534C487.46 106.817 483.211 99.7975 477.451 94.1008Z" fill="#8A265A"/>
<path d="M400.021 156.808C400.609 156.997 401.228 157.047 401.836 156.956C402.444 156.864 403.026 156.633 403.54 156.278C404.054 155.924 404.489 155.454 404.813 154.903C405.137 154.352 405.342 153.732 405.415 153.088L420 149.72L414.444 144L401.446 148.076C400.413 148.018 399.396 148.363 398.588 149.045C397.78 149.726 397.237 150.697 397.061 151.773C396.886 152.85 397.09 153.957 397.635 154.885C398.181 155.813 399.03 156.497 400.021 156.808L400.021 156.808Z" fill="#9E616A"/>
<path d="M409.736 152L409 142.728L436.704 135.096L457.321 109.177C458.34 107.895 459.625 106.857 461.085 106.136C462.545 105.414 464.144 105.027 465.768 105.001C467.392 104.976 469.002 105.313 470.483 105.989C471.964 106.664 473.28 107.662 474.338 108.911C476.246 111.168 477.192 114.1 476.968 117.063C476.744 120.026 475.368 122.778 473.144 124.715L445.049 149.125L409.736 152Z" fill="#8A265A"/>
<path d="M517.643 193.286C517.903 192.699 518.024 192.066 517.996 191.43C517.969 190.795 517.794 190.173 517.484 189.608C517.174 189.043 516.737 188.549 516.203 188.161C515.67 187.773 515.052 187.5 514.395 187.361L512.522 172L506 177.161L508.778 190.957C508.605 192.016 508.849 193.098 509.464 193.997C510.079 194.897 511.022 195.553 512.115 195.84C513.208 196.127 514.374 196.026 515.393 195.555C516.412 195.084 517.213 194.277 517.643 193.286Z" fill="#9E616A"/>
<path d="M513.28 184L504.165 183.811L499.487 155.302L476.268 132.064C475.121 130.915 474.237 129.524 473.679 127.99C473.121 126.456 472.903 124.816 473.04 123.186C473.177 121.557 473.667 119.979 474.473 118.563C475.28 117.147 476.384 115.928 477.707 114.994C480.099 113.308 483.053 112.654 485.92 113.174C488.787 113.695 491.333 115.347 493 117.769L514 148.345L513.28 184Z" fill="#8A265A"/>
<path d="M450.665 59.3861C451.929 54.6118 454.914 50.5091 459.016 47.9093C463.117 45.3095 468.028 44.4069 472.754 45.3845C477.48 46.362 481.667 49.1465 484.466 53.174C487.266 57.2014 488.47 62.1706 487.834 67.0748C487.197 71.979 484.768 76.4515 481.038 79.5863C477.309 82.7211 472.558 84.2837 467.748 83.9576C462.937 83.6314 458.428 81.441 455.132 77.8299C451.837 74.2189 450.002 69.4573 450 64.5098C449.999 62.7792 450.223 61.0562 450.665 59.3861Z" fill="#9E616A"/>
<path d="M446.931 172.664C443.631 172.652 440.383 171.8 437.463 170.182C434.543 168.564 432.038 166.227 430.16 163.37C429.119 161.717 428.22 159.666 428.827 157.661C428.99 156.957 429.39 156.34 429.953 155.922C430.515 155.505 431.202 155.316 431.886 155.391C433.371 155.61 434.648 156.805 435.643 157.901C436.989 159.466 438.225 161.132 439.339 162.887C441.105 165.513 444.54 169.765 441.884 172.91C439.65 175.555 435.892 175.779 432.885 176.732C429.635 177.763 426.308 180.075 426.016 183.975C425.732 187.768 429.193 190.326 432.384 190.876C434.292 191.162 436.238 190.951 438.05 190.262C439.863 189.573 441.487 188.427 442.782 186.923C445.313 183.842 446.694 179.897 446.669 175.824C446.664 175.516 446.546 175.222 446.339 175.004C446.132 174.786 445.853 174.661 445.561 174.656C445.268 174.651 444.985 174.765 444.771 174.975C444.557 175.185 444.429 175.474 444.414 175.782C444.359 179.492 443.204 183.282 440.594 185.882C438.15 188.316 434.267 189.476 431.083 188.042C429.508 187.333 428.042 185.841 428.286 183.899C428.51 182.116 429.885 180.721 431.322 179.916C434.572 178.096 438.475 178.257 441.645 176.157C444.667 174.155 445.873 170.804 444.5 167.252C443.635 165.281 442.561 163.421 441.296 161.706C440.138 159.905 438.877 158.18 437.52 156.54C435.482 154.182 432.289 151.897 429.221 153.58C425.725 155.498 425.957 160.309 427.575 163.456C431.264 170.631 439.286 175.007 446.891 175.038C447.184 175.033 447.463 174.908 447.669 174.691C447.876 174.473 447.995 174.179 448 173.871C448.005 173.563 447.896 173.265 447.697 173.04C447.497 172.815 447.223 172.68 446.93 172.664L446.931 172.664Z" fill="#2F2E41"/>
<path d="M501.22 90L469.85 83.5955C468.709 77.584 479.247 69.4821 481.985 59.6043C477.09 59.015 470.534 58.0327 464.86 56.7518C459.186 55.463 454.385 53.8835 453 52.084C454.006 47.1831 456.919 42.8816 461.1 40.1246C465.281 37.3676 470.387 36.3809 475.296 37.3812L479.144 38.167C479.27 38.1906 479.396 38.222 479.522 38.2535C484.24 39.3074 488.369 42.1359 491.052 46.151C494.994 48.3267 498.584 51.0847 501.7 54.3314C503.01 57.2848 503.775 60.45 503.959 63.6748C504.431 72.4447 500.685 81.5288 501.22 90Z" fill="#2F2E41"/>
<path d="M788 376C788 376.131 787.977 376.262 787.931 376.383C787.885 376.505 787.817 376.615 787.731 376.708C787.646 376.801 787.544 376.875 787.432 376.925C787.32 376.975 787.2 377 787.079 377H119.921C119.677 377 119.442 376.895 119.27 376.707C119.097 376.52 119 376.265 119 376C119 375.735 119.097 375.48 119.27 375.293C119.442 375.105 119.677 375 119.921 375H787.079C787.2 375 787.32 375.025 787.432 375.075C787.544 375.125 787.646 375.199 787.731 375.292C787.817 375.385 787.885 375.495 787.931 375.617C787.977 375.738 788 375.869 788 376Z" fill="#CCCCCC"/>
</svg>
