<svg xmlns="http://www.w3.org/2000/svg" viewBox="0 0 596 106.87"><defs><style>.cls-1{fill:#8a265a;}.cls-2{fill:#ff6f29;}</style></defs><g id="Camada_2" data-name="Camada 2"><g id="Camada_1-2" data-name="Camada 1"><path class="cls-1" d="M310.58,33.86l45.88,64.25-.08.08-45.79-37-45.82,37-.09-.06Z"/><path class="cls-2" d="M348.15,101.72l8,2.9.06-.09-45.58-29.8-45.71,29.88.07.09,7.2-2.66c12.52-4.61,25.93-9.3,38.44-13.92Z"/><path class="cls-2" d="M12.65,22.6a12.79,12.79,0,0,1-9.1-3.31A10.62,10.62,0,0,1,0,11.19,10.23,10.23,0,0,1,3.55,3.13,13.22,13.22,0,0,1,12.65,0,13.22,13.22,0,0,1,21.8,3.13a10.29,10.29,0,0,1,3.51,8.06A10.61,10.61,0,0,1,21.8,19.4,13.07,13.07,0,0,1,12.65,22.6Z"/><path class="cls-1" d="M23.29,80.93q0,4.53,2.16,6.85a7.45,7.45,0,0,0,5.77,2.33,19.36,19.36,0,0,0,3.62-.34l3.61-.7v15.44a80,80,0,0,1-8.38,1.7,62.19,62.19,0,0,1-9.21.66,20.94,20.94,0,0,1-8-1.46,16.73,16.73,0,0,1-6.12-4.21,19.15,19.15,0,0,1-3.93-6.64A25.81,25.81,0,0,1,1.46,85.8V33.86H23.29Z"/><path class="cls-1" d="M116.47,105.06H94.56V65.5Q94.56,49,82.74,49a11.71,11.71,0,0,0-9.38,4.38,16.68,16.68,0,0,0-3.69,11.13v40.6h-22V33.86h22V45.13H70q7.86-13,22.87-13,23.64,0,23.65,29.35Z"/><path class="cls-1" d="M163.93,106.8q-17.81,0-28-10T125.75,69.74q0-17.65,10.57-27.64t28.58-10q17.73,0,27.81,10t10.08,26.39q0,17.73-10.39,28T163.93,106.8ZM164.48,49q-7.78,0-12.1,5.35t-4.31,15.16Q148.07,90,164.62,90q15.78,0,15.79-21.06Q180.41,48.95,164.48,49Z"/><path class="cls-1" d="M277.9,33.86l-26.49,71.2h-25l-25.24-71.2h23.5L237,77.74a63.87,63.87,0,0,1,2.43,12.65h.28a71.5,71.5,0,0,1,2.57-12.24L255,33.86Z"/><path class="cls-1" d="M386.34,80.93c0,3,.71,5.3,2.15,6.85a7.46,7.46,0,0,0,5.77,2.33,19.29,19.29,0,0,0,3.62-.34l3.61-.7v15.44a79.82,79.82,0,0,1-8.37,1.7,62.43,62.43,0,0,1-9.22.66,21,21,0,0,1-8-1.46,16.73,16.73,0,0,1-6.12-4.21,19.15,19.15,0,0,1-3.93-6.64,25.81,25.81,0,0,1-1.39-8.76V33.85h21.84Z"/><path class="cls-1" d="M473.72,75.72H427.28q1.11,15.51,19.54,15.51a38.16,38.16,0,0,0,20.65-5.57v15.86q-9.89,5.28-25.66,5.28-17.25,0-26.77-9.56t-9.53-26.67q0-17.73,10.29-28.09a34.31,34.31,0,0,1,25.31-10.36q15.58,0,24.1,9.25t8.51,25.1ZM453.35,62.23q0-15.3-12.38-15.3a11.81,11.81,0,0,0-9.14,4.38,19.85,19.85,0,0,0-4.69,10.92Z"/><path class="cls-1" d="M596,105.06H574.1V64.46Q574.1,49,562.69,49a10.47,10.47,0,0,0-8.83,4.66,19.16,19.16,0,0,0-3.4,11.61v39.84h-22V64q0-15.09-11.19-15.09a10.7,10.7,0,0,0-9,4.45q-3.37,4.45-3.38,12.1v39.56h-22V33.86h22V45h.28a27,27,0,0,1,23-12.87q15.07,0,20.65,13.28Q557,32.13,572.78,32.12,596,32.12,596,60.77Z"/></g></g></svg>