<svg width="623" height="378" viewBox="0 0 623 378" fill="none" xmlns="http://www.w3.org/2000/svg">
<path d="M310.919 296.328C309.471 296.317 308.006 296.308 306.567 296.264L306.612 294.847C308.036 294.89 309.492 294.909 310.92 294.911C312.354 294.911 313.816 294.888 315.265 294.842L315.312 296.258C313.846 296.305 312.369 296.328 310.919 296.328ZM297.841 295.73C294.951 295.462 292.033 295.1 289.167 294.654L289.396 293.254C292.231 293.696 295.118 294.054 297.978 294.319L297.841 295.73ZM324.037 295.714L323.899 294.303C326.757 294.036 329.644 293.674 332.48 293.228L332.711 294.628C329.845 295.079 326.926 295.444 324.037 295.714H324.037ZM280.581 293.036C277.751 292.409 274.904 291.684 272.119 290.88L272.531 289.52C275.286 290.316 278.102 291.033 280.902 291.653L280.581 293.036ZM341.294 293.001L340.972 291.619C343.778 290.994 346.593 290.273 349.34 289.476L349.754 290.836C346.977 291.641 344.131 292.369 341.294 293.001H341.294ZM263.817 288.197C261.086 287.217 258.355 286.138 255.697 284.99L256.285 283.694C258.913 284.829 261.616 285.897 264.317 286.866L263.817 288.197ZM358.052 288.141L357.55 286.811C360.235 285.845 362.928 284.778 365.554 283.64L366.143 284.936C363.488 286.086 360.766 287.165 358.052 288.141H358.052ZM247.809 281.279C245.24 279.969 242.674 278.557 240.184 277.082L240.936 275.869C243.4 277.33 245.939 278.726 248.481 280.022L247.809 281.279ZM374.009 281.227L373.337 279.971C375.874 278.675 378.406 277.279 380.864 275.82L381.618 277.032C379.133 278.506 376.574 279.917 374.009 281.227H374.009ZM232.851 272.418C230.471 270.796 228.112 269.075 225.84 267.306L226.745 266.197C228.994 267.948 231.327 269.65 233.682 271.255L232.851 272.418ZM388.938 272.367L388.106 271.205C390.46 269.599 392.791 267.897 395.033 266.147L395.939 267.255C393.672 269.023 391.317 270.743 388.938 272.367V272.367ZM219.178 261.767C217.027 259.859 214.912 257.861 212.893 255.827L213.935 254.84C215.933 256.852 218.025 258.829 220.154 260.717L219.178 261.767ZM402.594 261.717L401.618 260.668C403.741 258.784 405.832 256.805 407.833 254.789L408.875 255.775C406.853 257.813 404.74 259.813 402.594 261.717V261.717ZM207.008 249.511C205.125 247.353 203.288 245.11 201.549 242.842L202.711 241.991C204.432 244.236 206.249 246.456 208.113 248.59L207.008 249.511ZM414.758 249.452L413.654 248.532C415.517 246.397 417.335 244.174 419.055 241.926L420.217 242.775C418.479 245.047 416.642 247.293 414.758 249.452V249.452ZM196.538 235.847C194.949 233.471 193.421 231.018 191.995 228.556L193.259 227.858C194.669 230.294 196.182 232.722 197.753 235.071L196.538 235.847ZM425.231 235.77L424.014 234.996C425.587 232.641 427.098 230.21 428.51 227.768L429.774 228.465C428.348 230.933 426.819 233.391 425.231 235.77V235.77ZM187.941 220.997C186.678 218.446 185.485 215.823 184.395 213.202L185.74 212.669C186.818 215.261 187.999 217.856 189.249 220.38L187.941 220.997ZM433.829 220.887L432.522 220.27C433.771 217.742 434.952 215.14 436.032 212.536L437.378 213.068C436.286 215.701 435.092 218.331 433.829 220.887V220.887ZM181.365 205.19C180.447 202.497 179.608 199.742 178.871 197.002L180.275 196.642C181.004 199.352 181.834 202.078 182.742 204.741L181.365 205.19ZM440.402 205.04L439.024 204.594C439.927 201.933 440.754 199.207 441.481 196.491L442.886 196.85C442.151 199.595 441.315 202.351 440.402 205.04V205.04ZM176.924 188.676C176.369 185.895 175.9 183.058 175.529 180.246L176.968 180.064C177.336 182.847 177.8 185.653 178.348 188.405L176.924 188.676ZM444.823 188.521L443.398 188.252C443.943 185.501 444.404 182.694 444.768 179.908L446.208 180.088C445.84 182.903 445.374 185.74 444.823 188.521V188.521ZM174.69 171.745C174.504 168.919 174.407 166.047 174.404 163.208L175.856 163.207C175.859 166.016 175.954 168.858 176.138 171.654L174.69 171.745ZM447.037 171.587L445.588 171.497C445.769 168.703 445.861 165.862 445.861 163.051L445.86 162.741H447.312L447.312 163.047C447.312 165.891 447.219 168.763 447.037 171.587ZM176.118 154.76L174.669 154.673C174.849 151.842 175.125 148.981 175.488 146.17L176.928 146.348C176.569 149.129 176.296 151.959 176.118 154.76ZM445.569 154.295C445.38 151.493 445.097 148.663 444.728 145.886L446.167 145.703C446.54 148.51 446.827 151.37 447.017 154.202L445.569 154.295ZM178.288 138.004L176.862 137.736C177.41 134.953 178.059 132.15 178.789 129.405L180.194 129.762C179.471 132.478 178.83 135.251 178.288 138.004ZM443.337 137.547C442.784 134.792 442.132 132.021 441.4 129.311L442.804 128.95C443.544 131.689 444.202 134.489 444.761 137.274L443.337 137.547ZM182.642 121.657L181.263 121.213C182.174 118.519 183.189 115.816 184.278 113.18L185.624 113.711C184.546 116.319 183.543 118.992 182.642 121.657ZM438.925 121.215C438.013 118.554 437.002 115.888 435.918 113.292L437.262 112.757C438.358 115.381 439.381 118.076 440.301 120.765L438.925 121.215ZM189.126 105.971L187.817 105.357C189.077 102.8 190.438 100.249 191.864 97.7744L193.129 98.4702C191.718 100.918 190.372 103.442 189.126 105.971ZM432.4 105.585C431.15 103.067 429.798 100.553 428.381 98.1112L429.644 97.412C431.076 99.8794 432.443 102.421 433.706 104.966L432.4 105.585ZM197.616 91.2367L196.399 90.4634C197.982 88.0867 199.666 85.7277 201.403 83.4524L202.567 84.2998C200.848 86.5511 199.182 88.8849 197.616 91.2367ZM423.878 90.903C422.307 88.5599 420.636 86.2334 418.911 83.9882L420.072 83.1374C421.816 85.4067 423.505 87.7582 425.093 90.1262L423.878 90.903ZM207.96 77.6879L206.855 76.7699C208.735 74.6096 210.711 72.4801 212.729 70.4409L213.773 71.426C211.777 73.4437 209.821 75.5508 207.96 77.6879ZM413.501 77.3958C411.635 75.2645 409.673 73.1637 407.671 71.1519L408.712 70.1639C410.736 72.1969 412.718 74.3202 414.604 76.4743L413.501 77.3958ZM219.981 65.539L219.004 64.4909C221.152 62.5798 223.389 60.7136 225.652 58.9448L226.559 60.0518C224.32 61.8019 222.107 63.6483 219.981 65.539V65.539ZM401.445 65.2818C399.316 63.3998 397.097 61.5589 394.847 59.8109L395.751 58.7011C398.025 60.4682 400.268 62.3284 402.418 64.2309L401.445 65.2818ZM233.481 54.9859L232.648 53.8249C235.023 52.199 237.484 50.6271 239.962 49.1525L240.718 50.3633C238.266 51.8224 235.831 53.3776 233.481 54.9859ZM387.905 54.7602C385.542 53.1537 383.099 51.6036 380.645 50.1529L381.396 48.94C383.877 50.4059 386.346 51.9726 388.734 53.5964L387.905 54.7602ZM248.239 46.204L247.565 44.9481C250.132 43.6335 252.777 42.3825 255.427 41.2301L256.017 42.5254C253.395 43.6653 250.779 44.9031 248.239 46.204ZM373.095 46.0094C370.546 44.7135 367.919 43.4815 365.287 42.3475L365.873 41.0501C368.533 42.1962 371.189 43.4417 373.766 44.7515L373.095 46.0094ZM264.018 39.345L263.514 38.015C266.236 37.0316 269.027 36.1219 271.809 35.3116L272.224 36.6706C269.471 37.4719 266.71 38.3719 264.018 39.345H264.018ZM357.251 39.184C354.553 38.22 351.788 37.3297 349.035 36.5384L349.444 35.1779C352.228 35.9779 355.022 36.8779 357.75 37.8527L357.251 39.184ZM280.59 34.5193L280.266 33.1374C283.09 32.5053 285.978 31.9546 288.848 31.4994L289.08 32.8993C286.24 33.3493 283.384 33.8941 280.59 34.5193ZM340.661 34.4161C337.862 33.8 335.003 33.2648 332.164 32.8252L332.392 31.4247C335.261 31.8691 338.15 32.4102 340.98 33.0329L340.661 34.4161ZM297.66 31.8141L297.519 30.4032C300.401 30.1301 303.337 29.9435 306.244 29.849L306.292 31.2661C303.416 31.3596 300.511 31.5441 297.66 31.8141V31.8141ZM323.581 31.7701C320.725 31.5095 317.82 31.335 314.947 31.2516L314.99 29.8345C317.893 29.9189 320.83 30.0951 323.716 30.3585L323.581 31.7701Z" fill="#D0CDE1"/>
<path d="M305.777 66.6385C324.617 66.6385 339.89 51.7209 339.89 33.3192C339.89 14.9175 324.617 0 305.777 0C286.936 0 271.663 14.9175 271.663 33.3192C271.663 51.7209 286.936 66.6385 305.777 66.6385Z" fill="#2C67F2"/>
<path d="M437.876 157.38C456.717 157.38 471.99 142.463 471.99 124.061C471.99 105.659 456.717 90.7416 437.876 90.7416C419.036 90.7416 403.763 105.659 403.763 124.061C403.763 142.463 419.036 157.38 437.876 157.38Z" fill="#2C67F2"/>
<path d="M396.504 296.329C415.345 296.329 430.618 281.411 430.618 263.009C430.618 244.608 415.345 229.69 396.504 229.69C377.664 229.69 362.391 244.608 362.391 263.009C362.391 281.411 377.664 296.329 396.504 296.329Z" fill="#2C67F2"/>
<path d="M232.469 302C251.309 302 266.583 287.082 266.583 268.681C266.583 250.279 251.309 235.362 232.469 235.362C213.629 235.362 198.355 250.279 198.355 268.681C198.355 287.082 213.629 302 232.469 302Z" fill="#2C67F2"/>
<path d="M183.114 157.38C201.954 157.38 217.227 142.463 217.227 124.061C217.227 105.659 201.954 90.7416 183.114 90.7416C164.273 90.7416 149 105.659 149 124.061C149 142.463 164.273 157.38 183.114 157.38Z" fill="#2C67F2"/>
<path d="M296.835 24.375L291.029 45.9111C290.949 46.2303 291.038 46.5695 291.278 46.7966C291.518 47.0307 291.867 47.1226 292.186 47.0304L314.224 41.0645C313.978 31.1355 307.072 24.4772 296.835 24.375ZM298.387 41.6141C297.363 41.6141 296.527 40.7978 296.527 39.8487C296.527 38.8485 297.364 38.0323 298.388 38.0323C299.413 38.0323 300.248 38.8485 300.248 39.7976C300.3 40.7967 299.463 41.6141 298.387 41.6141ZM301.178 33.389C300.153 33.389 299.318 32.5728 299.318 31.5726C299.318 30.5724 300.153 29.8072 301.178 29.8072C302.202 29.8072 303.038 30.6235 303.038 31.5726C303.09 32.6227 302.253 33.389 301.178 33.389ZM306.811 38.8383C305.786 38.8383 304.95 38.0221 304.95 37.073C304.95 36.0728 305.786 35.2565 306.811 35.2565C307.836 35.2565 308.671 36.0728 308.671 37.073C308.671 38.072 307.834 38.8383 306.811 38.8383ZM300.236 18.0084C299.298 17.9233 298.419 18.491 298.179 19.3776L297.318 22.571C308.223 22.8832 315.6 29.9844 316.065 40.514L319.372 39.62C320.287 39.3716 320.854 38.5063 320.745 37.5838C319.536 27.3721 310.81 18.9876 300.236 18.0084Z" fill="white"/>
<g clip-path="url(#clip0_1861_392)">
<path d="M198.248 109.281C196.178 107.252 192.8 107.253 190.732 109.283L167.323 132.147C165.935 133.445 165.378 135.378 165.868 137.196C166.359 139.015 167.805 140.428 169.668 140.907C171.529 141.385 173.508 140.841 174.838 139.486L198.244 116.624C200.32 114.602 200.326 111.303 198.248 109.281ZM194.93 115.461C193.624 116.736 192.438 116.926 191.482 117.088C190.618 117.235 189.994 117.34 189.172 118.144C188.349 118.948 188.241 119.557 188.091 120.402C187.925 121.335 187.725 122.496 186.42 123.771C185.115 125.046 183.926 125.241 182.97 125.403C182.104 125.548 181.477 125.658 180.658 126.459C179.835 127.263 179.727 127.872 179.577 128.716C179.412 129.648 179.212 130.812 177.906 132.088C176.601 133.363 175.412 133.557 174.456 133.72C173.589 133.865 172.969 133.969 172.145 134.776C171.729 135.182 171.056 135.182 170.64 134.776C170.225 134.37 170.225 133.712 170.64 133.306C171.946 132.031 173.134 131.837 174.09 131.675C174.955 131.529 175.578 131.423 176.401 130.619C177.224 129.816 177.332 129.206 177.482 128.362C177.648 127.428 177.848 126.267 179.153 124.992C180.458 123.717 181.647 123.523 182.603 123.36C183.467 123.214 184.091 123.108 184.913 122.304C185.736 121.501 185.844 120.892 185.994 120.048C186.16 119.114 186.36 117.953 187.665 116.678C188.97 115.403 190.159 115.208 191.115 115.046C191.979 114.9 192.6 114.798 193.422 113.994C193.838 113.588 194.512 113.588 194.928 113.994C195.283 114.4 195.283 115.057 194.93 115.461ZM167.855 128.678L187.177 109.806L186.412 109.051C184.749 107.427 182.164 107.322 180.643 108.807L166.833 122.294C165.311 123.784 165.419 126.309 167.082 127.93L167.855 128.678ZM197.715 120.088L178.393 138.96L179.157 139.715C180.82 141.339 183.405 141.444 184.926 139.959L198.738 126.468C200.259 124.982 200.151 122.458 198.489 120.834L197.715 120.088Z" fill="white"/>
</g>
<path d="M452.999 134.086V136.043C452.999 136.562 452.792 137.059 452.426 137.426C452.059 137.793 451.562 137.999 451.043 138H424.957C424.438 137.999 423.941 137.793 423.574 137.426C423.208 137.059 423.001 136.562 423.001 136.043V134.086C423.001 134 423.017 133.915 423.05 133.836C423.083 133.757 423.131 133.685 423.192 133.624C423.252 133.564 423.324 133.516 423.403 133.483C423.482 133.45 423.567 133.433 423.653 133.433H452.347C452.433 133.433 452.518 133.45 452.597 133.483C452.676 133.516 452.748 133.564 452.808 133.624C452.869 133.685 452.917 133.757 452.95 133.836C452.983 133.915 452.999 134 452.999 134.086V134.086ZM451.043 132.128V123.444C451.035 123.087 451.105 122.732 451.247 122.404C451.389 122.076 451.6 121.783 451.866 121.544C452.282 121.187 452.601 120.731 452.794 120.217C452.986 119.703 453.045 119.149 452.966 118.606C452.835 117.82 452.427 117.106 451.816 116.595C451.205 116.083 450.43 115.808 449.633 115.819H446.375C447.109 116.508 447.588 117.425 447.735 118.422C447.846 119.182 447.764 119.958 447.494 120.677C447.224 121.396 446.777 122.035 446.193 122.535C446.07 122.651 445.974 122.793 445.911 122.949C445.847 123.106 445.818 123.275 445.826 123.444V132.128H451.043ZM444.521 132.128V123.444C444.514 123.087 444.583 122.732 444.725 122.404C444.867 122.076 445.078 121.783 445.344 121.544C445.761 121.187 446.08 120.731 446.272 120.217C446.465 119.703 446.524 119.149 446.444 118.606C446.314 117.82 445.906 117.106 445.294 116.595C444.683 116.083 443.909 115.808 443.112 115.819H439.854C440.588 116.508 441.067 117.425 441.214 118.422C441.325 119.182 441.242 119.958 440.972 120.677C440.703 121.396 440.255 122.035 439.672 122.535C439.549 122.651 439.453 122.793 439.389 122.949C439.326 123.106 439.297 123.275 439.304 123.444V132.128H444.521ZM423.034 118.606C423.165 117.82 423.573 117.106 424.184 116.595C424.795 116.083 425.57 115.808 426.366 115.819H436.591C437.387 115.808 438.162 116.083 438.773 116.595C439.384 117.106 439.792 117.82 439.923 118.606C440.002 119.149 439.943 119.703 439.751 120.217C439.559 120.731 439.239 121.187 438.823 121.544C438.557 121.783 438.346 122.076 438.204 122.404C438.062 122.732 437.992 123.087 438 123.444V132.128H424.957V123.444C424.965 123.087 424.895 122.732 424.754 122.404C424.612 122.077 424.401 121.783 424.135 121.545C423.718 121.188 423.399 120.731 423.206 120.217C423.014 119.703 422.955 119.149 423.034 118.606V118.606ZM428.409 124.761C428.469 124.822 428.541 124.87 428.62 124.902C428.7 124.935 428.784 124.952 428.87 124.952C428.956 124.952 429.04 124.935 429.12 124.902C429.199 124.87 429.271 124.822 429.331 124.761L431.94 122.151C432.062 122.029 432.131 121.863 432.131 121.69C432.131 121.517 432.062 121.351 431.94 121.229C431.817 121.107 431.651 121.038 431.479 121.038C431.306 121.038 431.14 121.107 431.017 121.229L428.409 123.838C428.348 123.899 428.3 123.971 428.267 124.05C428.235 124.129 428.218 124.214 428.218 124.3C428.218 124.385 428.235 124.47 428.268 124.549C428.3 124.629 428.348 124.7 428.409 124.761L428.409 124.761ZM428.409 129.328C428.469 129.388 428.541 129.436 428.62 129.469C428.7 129.502 428.784 129.519 428.87 129.519C428.956 129.519 429.04 129.502 429.12 129.469C429.199 129.436 429.271 129.388 429.331 129.328L434.548 124.109C434.67 123.986 434.739 123.82 434.739 123.647C434.739 123.474 434.67 123.308 434.548 123.186C434.426 123.064 434.26 122.995 434.087 122.995C433.914 122.995 433.748 123.064 433.626 123.186L428.409 128.405C428.348 128.466 428.3 128.538 428.267 128.617C428.235 128.696 428.218 128.781 428.218 128.867C428.218 128.952 428.235 129.037 428.268 129.116C428.3 129.195 428.348 129.267 428.409 129.328L428.409 129.328ZM438.594 114.131C438.805 113.618 438.906 113.066 438.89 112.511C438.874 111.957 438.743 111.411 438.503 110.911C438.196 110.042 438.068 109.601 438.509 109.05C438.613 108.915 438.66 108.744 438.639 108.575C438.619 108.405 438.533 108.25 438.4 108.143C438.267 108.037 438.097 107.986 437.927 108.003C437.757 108.02 437.601 108.103 437.491 108.234C436.577 109.375 436.963 110.468 437.273 111.346C437.453 111.689 437.558 112.067 437.581 112.454C437.604 112.842 437.544 113.229 437.406 113.592C437.371 113.67 437.351 113.754 437.348 113.839C437.346 113.925 437.36 114.01 437.39 114.091C437.42 114.171 437.465 114.244 437.524 114.307C437.582 114.369 437.652 114.42 437.73 114.455C437.888 114.527 438.067 114.533 438.229 114.472C438.309 114.442 438.383 114.397 438.445 114.338C438.508 114.28 438.558 114.209 438.594 114.131H438.594ZM432.072 114.131C432.283 113.618 432.384 113.066 432.369 112.511C432.353 111.957 432.221 111.411 431.982 110.911C431.675 110.042 431.547 109.601 431.987 109.05C432.091 108.915 432.138 108.744 432.118 108.575C432.098 108.405 432.012 108.25 431.878 108.143C431.745 108.037 431.575 107.986 431.405 108.003C431.236 108.02 431.079 108.103 430.97 108.234C430.056 109.375 430.442 110.468 430.752 111.346C430.932 111.689 431.037 112.067 431.059 112.454C431.082 112.842 431.023 113.229 430.885 113.592C430.813 113.749 430.807 113.929 430.868 114.091C430.929 114.253 431.051 114.384 431.209 114.455C431.366 114.527 431.546 114.533 431.708 114.472C431.869 114.411 432.001 114.289 432.072 114.131H432.072ZM445.115 114.131C445.326 113.618 445.427 113.066 445.411 112.511C445.396 111.957 445.264 111.411 445.025 110.911C444.718 110.042 444.59 109.601 445.03 109.05C445.134 108.915 445.181 108.744 445.161 108.575C445.141 108.405 445.054 108.25 444.921 108.143C444.788 108.037 444.618 107.986 444.448 108.003C444.278 108.02 444.122 108.103 444.013 108.234C443.099 109.375 443.485 110.468 443.795 111.346C443.975 111.689 444.079 112.067 444.102 112.454C444.125 112.842 444.066 113.229 443.928 113.592C443.892 113.67 443.873 113.754 443.87 113.839C443.867 113.925 443.881 114.01 443.911 114.091C443.941 114.171 443.987 114.244 444.045 114.307C444.104 114.369 444.174 114.42 444.252 114.455C444.33 114.491 444.414 114.51 444.499 114.513C444.585 114.516 444.67 114.502 444.75 114.472C444.831 114.442 444.904 114.397 444.967 114.338C445.029 114.28 445.08 114.209 445.115 114.131H445.115Z" fill="white"/>
<path d="M240.189 250C238.903 249.998 237.654 250.453 236.637 251.293C235.619 252.134 234.893 253.312 234.572 254.642H219.957C219.785 254.646 219.616 254.699 219.469 254.794C219.322 254.89 219.201 255.026 219.119 255.188C219.036 255.35 218.996 255.532 219 255.716C219.005 255.9 219.056 256.08 219.146 256.236L229.28 273.042V284.926H225.726C225.469 284.926 225.222 285.036 225.04 285.23C224.858 285.425 224.756 285.688 224.756 285.963C224.756 286.238 224.858 286.502 225.04 286.696C225.222 286.891 225.469 287 225.726 287H234.079C234.337 287 234.583 286.891 234.765 286.696C234.947 286.502 235.049 286.238 235.049 285.963C235.049 285.688 234.947 285.425 234.765 285.23C234.583 285.036 234.337 284.926 234.079 284.926H231.184C231.184 284.864 231.184 273.088 231.184 273.042L237.894 261.9C238.683 262.253 239.534 262.414 240.388 262.373C241.242 262.332 242.076 262.09 242.832 261.664C243.588 261.237 244.246 260.637 244.759 259.907C245.272 259.176 245.628 258.334 245.8 257.439C245.973 256.544 245.958 255.62 245.757 254.732C245.556 253.845 245.173 253.015 244.637 252.304C244.1 251.593 243.423 251.018 242.654 250.619C241.885 250.221 241.043 250.009 240.189 250V250ZM235.382 256.716H238.719L236.229 260.832H224.235L221.738 256.716H235.382Z" fill="white"/>
<path d="M391.293 252.012H391.315C392.817 252.018 394.248 252.58 395.349 253.594C395.762 253.974 396.116 254.405 396.403 254.874C396.691 254.405 397.044 253.974 397.457 253.594C398.558 252.58 399.99 252.018 401.487 252.012H401.514C401.529 252.012 401.544 252.012 401.56 252.012C400.965 249.708 398.871 248 396.383 248C393.896 248 391.801 249.708 391.207 252.013C391.236 252.012 391.264 252.012 391.293 252.012V252.012Z" fill="white"/>
<path d="M401.49 253.773C399.305 253.782 397.503 255.43 397.302 257.606C397.289 257.738 397.283 257.87 397.283 258.002C397.283 258.206 397.298 258.408 397.326 258.607H405.699C405.728 258.408 405.742 258.206 405.742 258.002C405.742 255.67 403.845 253.773 401.513 253.773H401.49Z" fill="white"/>
<path d="M395.479 258.607C395.508 258.408 395.522 258.206 395.522 258.002C395.522 257.87 395.516 257.738 395.504 257.61C395.303 255.43 393.501 253.782 391.311 253.773H391.292C388.961 253.773 387.063 255.67 387.063 258.002C387.063 258.206 387.078 258.408 387.106 258.607H395.479V258.607Z" fill="white"/>
<path d="M386 260.368C386.153 263.318 388.602 265.671 391.59 265.671H391.957V268.29C391.957 270.429 393.483 272.219 395.503 272.628V276.239H392.861V278H399.906V276.239H397.264V272.628C399.284 272.219 400.809 270.429 400.809 268.29V265.671H401.177C404.165 265.671 406.613 263.318 406.766 260.368H386Z" fill="white"/>
<path d="M43.1905 324.593H48.0749L50.3986 303.962H43.1895L43.1905 324.593Z" fill="#9E616A"/>
<path d="M41.9453 322.846L51.5648 322.846H51.5652C53.191 322.846 54.7502 323.553 55.8998 324.812C57.0495 326.071 57.6954 327.778 57.6955 329.559V329.777L41.9456 329.778L41.9453 322.846Z" fill="#2F2E41"/>
<path d="M88.2129 324.593H93.0973L95.4211 303.962H88.2119L88.2129 324.593Z" fill="#9E616A"/>
<path d="M86.9668 322.846L96.5863 322.846H96.5867C98.2125 322.846 99.7717 323.553 100.921 324.812C102.071 326.071 102.717 327.779 102.717 329.559V329.777L86.9671 329.778L86.9668 322.846Z" fill="#2F2E41"/>
<path d="M82.315 158.847L85.5023 181.097L55.2227 181.534L59.2066 160.156L82.315 158.847Z" fill="#9E616A"/>
<path d="M84.6233 175.665L94.2673 203.785L95.4626 320.319H87.2949L67.7723 226.69L49.8434 317.874H41.875L47.4529 215.346C47.4529 215.346 45.808 194.768 54.226 182.625L56.2751 176.142L84.6233 175.665Z" fill="#2F2E41"/>
<path d="M43.2562 197.586C44.0993 197.334 44.8818 196.883 45.5485 196.264C46.2152 195.646 46.75 194.875 47.1151 194.005C47.4802 193.136 47.6668 192.19 47.6618 191.233C47.6568 190.276 47.4602 189.332 47.0859 188.467L59.9675 142.478L50.4926 140.422L38.7112 185.5C37.4263 186.285 36.4489 187.559 35.9643 189.08C35.4797 190.601 35.5214 192.264 36.0817 193.754C36.6419 195.243 37.6817 196.456 39.004 197.162C40.3263 197.869 41.8393 198.019 43.2562 197.586Z" fill="#9E616A"/>
<path d="M60.2451 171.136C60.0684 171.136 59.892 171.116 59.7186 171.079V171.079C59.1356 170.951 58.6068 170.618 58.213 170.13C57.8191 169.642 57.5819 169.027 57.5376 168.377C57.2381 163.887 55.754 156.07 53.1266 145.144C52.2396 141.431 52.4361 137.507 53.6884 133.922C54.9407 130.337 57.1861 127.271 60.1098 125.153C63.0335 123.036 66.4889 121.974 69.9917 122.116C73.4945 122.257 76.869 123.595 79.6422 125.943C81.4179 127.432 82.8998 129.3 83.9989 131.433C85.098 133.566 85.7914 135.921 86.0374 138.356C87.3432 150.948 84.8814 163.591 83.7624 168.443C83.6154 169.076 83.2828 169.639 82.8156 170.046C82.3485 170.452 81.7725 170.68 81.1759 170.694L60.3032 171.135C60.2838 171.135 60.2645 171.136 60.2451 171.136Z" fill="#3F3D56"/>
<path d="M118.56 130.739C118.435 131.047 118.332 131.365 118.252 131.691L92.1251 141.413L87.0766 136.583L79.4248 143.974L87.6033 153.475C88.2641 154.242 89.1343 154.755 90.0835 154.934C91.0326 155.114 92.0094 154.952 92.8672 154.472L120.824 138.834C121.835 139.514 123.011 139.839 124.196 139.769C125.38 139.698 126.517 139.235 127.454 138.439C128.392 137.644 129.087 136.555 129.445 135.317C129.804 134.079 129.81 132.751 129.463 131.509C129.115 130.267 128.431 129.171 127.501 128.365C126.57 127.56 125.438 127.084 124.254 127C123.071 126.916 121.892 127.229 120.875 127.897C119.857 128.565 119.05 129.557 118.56 130.739V130.739Z" fill="#9E616A"/>
<path d="M91.2137 141.944L81.6894 151.054C81.4184 151.313 81.0995 151.505 80.7546 151.617C80.4097 151.729 80.0467 151.759 79.6905 151.703C79.3342 151.648 78.9931 151.509 78.6902 151.296C78.3874 151.084 78.13 150.802 77.9355 150.47L71.123 138.854C69.9186 137.328 69.316 135.342 69.4474 133.33C69.5789 131.319 70.4338 129.446 71.8244 128.124C73.215 126.802 75.0278 126.138 76.8651 126.277C78.7023 126.417 80.4139 127.349 81.6243 128.869L91.1908 137.793C91.4646 138.048 91.6849 138.365 91.8367 138.723C91.9885 139.08 92.0682 139.469 92.0704 139.863C92.0725 140.257 91.9972 140.647 91.8493 141.006C91.7015 141.365 91.4847 141.685 91.2137 141.944H91.2137Z" fill="#3F3D56"/>
<path d="M58.4628 154.253L46.6928 149.19C46.3579 149.046 46.0553 148.824 45.8056 148.541C45.5559 148.257 45.365 147.918 45.2458 147.546C45.1266 147.174 45.082 146.779 45.1151 146.386C45.1481 145.994 45.2579 145.614 45.4371 145.272L51.7169 133.301C52.3996 131.429 53.7325 129.93 55.4233 129.132C57.1141 128.334 59.0248 128.303 60.7364 129.046C62.4479 129.789 63.8207 131.244 64.5536 133.094C65.2866 134.943 65.3198 137.035 64.6461 138.911L61.8177 152.319C61.7366 152.703 61.581 153.063 61.3613 153.375C61.1416 153.688 60.8631 153.944 60.5447 154.128C60.2263 154.311 59.8755 154.417 59.5163 154.439C59.157 154.461 58.7977 154.397 58.4628 154.253V154.253Z" fill="#3F3D56"/>
<path d="M67.1877 119.281C74.2585 119.281 79.9906 113.004 79.9906 105.261C79.9906 97.5182 74.2585 91.2413 67.1877 91.2413C60.1168 91.2413 54.3848 97.5182 54.3848 105.261C54.3848 113.004 60.1168 119.281 67.1877 119.281Z" fill="#9E616A"/>
<path d="M200.06 331.27H0.609832C0.447931 331.269 0.292821 331.199 0.178506 331.073C0.0641904 330.948 0 330.778 0 330.6C0 330.423 0.0641904 330.253 0.178506 330.127C0.292821 330.002 0.447931 329.931 0.609832 329.931H200.06C200.222 329.931 200.377 330.002 200.491 330.127C200.606 330.253 200.67 330.423 200.67 330.6C200.67 330.778 200.606 330.948 200.491 331.073C200.377 331.199 200.222 331.269 200.06 331.27V331.27Z" fill="#CACACA"/>
<path d="M75.995 99.6252C78.7418 99.6083 81.4887 99.5913 84.2356 99.5744C84.431 97.5243 83.5978 95.4848 82.3839 93.9097C81.1045 92.3942 79.6454 91.0733 78.0456 89.9823C76.47 88.7983 74.8378 87.5873 72.9647 87.1735C71.3946 86.8267 69.7719 87.0674 68.1858 87.3089C66.0822 87.6292 63.9788 87.9495 61.8754 88.2698C59.5665 88.6214 57.1507 89.019 55.2754 90.5354C52.7392 92.586 51.769 96.1791 50.9542 99.5139L46.4434 117.972L73.0871 121.032C74.0509 121.214 75.0382 121.183 75.9907 120.94C76.4651 120.81 76.894 120.529 77.2241 120.134C77.5542 119.739 77.771 119.246 77.8475 118.717C77.9242 117.527 77.0622 116.553 76.3622 115.639C74.6923 113.373 73.6899 110.606 73.4877 107.703C73.2855 104.799 73.893 101.897 75.2298 99.3804L75.995 99.6252Z" fill="#2F2E41"/>
<path d="M561.948 265.518C561.466 264.914 561.116 264.206 560.923 263.444C560.731 262.682 560.7 261.886 560.833 261.11C560.966 260.335 561.26 259.599 561.694 258.956C562.128 258.312 562.692 257.776 563.345 257.385L559.976 238.561L568.74 242.416L570.596 259.7C571.151 260.893 571.268 262.257 570.926 263.535C570.584 264.812 569.807 265.914 568.741 266.631C567.675 267.348 566.395 267.631 565.143 267.426C563.891 267.221 562.754 266.542 561.948 265.519V265.518Z" fill="#FFB6B6"/>
<path d="M483.035 156.336C482.938 157.117 483.006 157.911 483.235 158.662C483.463 159.413 483.846 160.102 484.356 160.681C484.866 161.26 485.491 161.715 486.188 162.014C486.884 162.313 487.635 162.448 488.386 162.411L495.203 180.183L500.618 172.003L493.314 156.38C493.17 155.062 492.569 153.845 491.625 152.96C490.681 152.075 489.46 151.583 488.193 151.578C486.926 151.573 485.701 152.054 484.75 152.931C483.8 153.808 483.189 155.019 483.035 156.336Z" fill="#FFB6B6"/>
<path d="M559.889 370.083H553.613L550.627 344.739L559.891 344.74L559.889 370.083Z" fill="#FFB6B6"/>
<path d="M561.489 376.452L541.252 376.452V376.184C541.252 373.997 542.082 371.899 543.559 370.353C545.036 368.806 547.04 367.937 549.129 367.937H549.129L561.49 367.938L561.489 376.452Z" fill="#2F2E41"/>
<path d="M539.351 369.874L533.367 367.891L537.827 342.786L546.658 345.713L539.351 369.874Z" fill="#FFB6B6"/>
<path d="M539.041 376.452L519.747 370.058L519.824 369.802C520.455 367.717 521.851 365.98 523.705 364.972C525.559 363.965 527.719 363.769 529.711 364.429L529.712 364.429L541.495 368.335L539.041 376.452Z" fill="#2F2E41"/>
<path d="M531.917 246.218C531.917 246.218 522.605 261.526 525.895 275.188C529.186 288.851 532.77 315.112 532.77 315.112L550.612 359.565L563.912 358.997L550.704 306.585L551.226 271.542C551.226 271.542 560.406 254.794 558.619 249.581C556.831 244.367 531.917 246.218 531.917 246.218Z" fill="#2F2E41"/>
<path d="M562.341 251.691C562.341 251.691 563.486 266.877 559.903 273.308C556.319 279.74 552.501 304.218 552.501 304.218L546.41 353.174L533.794 348.876L544.552 294.026L553.008 250.881L562.341 251.691Z" fill="#2F2E41"/>
<path d="M566.813 178.179L556.97 171.095L541.991 170.64L536.774 175.994L528.813 180.249L528.076 249.581C528.076 249.581 551.915 261.543 564.739 255.769L570.909 201.76C573.469 191.041 566.813 178.179 566.813 178.179Z" fill="#3F3D56"/>
<path d="M530.814 198.777H504.557L487.307 167.691L498.524 163.04L508.023 180.73L521.772 179.428L530.357 178.993C531.733 178.923 533.106 179.169 534.382 179.713C535.657 180.258 536.804 181.087 537.741 182.144C538.678 183.2 539.384 184.458 539.808 185.83C540.233 187.202 540.365 188.654 540.198 190.085V190.085C539.914 192.482 538.804 194.689 537.076 196.289C535.348 197.89 533.121 198.775 530.814 198.777Z" fill="#3F3D56"/>
<path d="M550.702 164.93C557.875 164.93 563.69 158.843 563.69 151.334C563.69 143.824 557.875 137.737 550.702 137.737C543.529 137.737 537.714 143.824 537.714 151.334C537.714 158.843 543.529 164.93 550.702 164.93Z" fill="#FFB6B6"/>
<path d="M566.352 148.24C565.953 145.255 564.022 142.421 561.275 141.516C560.184 138.2 557.295 135.758 554.102 134.693C551.145 133.706 547.959 133.775 545.044 134.888C542.128 136.001 539.648 138.096 537.993 140.844C537.748 141.246 536.997 142.234 537.018 142.714C537.045 143.324 537.935 143.953 538.383 144.337C539.492 145.235 540.688 146.008 541.951 146.643C546.622 149.178 545.067 153.162 545.004 157.676C544.973 159.869 545.672 161.742 547.459 162.996C550.038 164.804 553.728 164.084 556.534 163.359C559.718 162.535 562.365 159.607 564.18 156.784C565.788 154.284 566.751 151.225 566.352 148.24Z" fill="#2F2E41"/>
<path d="M566.441 195.88L571.495 253.914L555.258 253.002L566.441 195.88Z" fill="#3F3D56"/>
<path d="M622.39 378H423.608C423.446 378 423.292 377.932 423.178 377.812C423.064 377.693 423 377.531 423 377.362C423 377.193 423.064 377.031 423.178 376.911C423.292 376.792 423.446 376.724 423.608 376.724H622.39C622.552 376.724 622.707 376.791 622.821 376.911C622.936 377.03 623 377.193 623 377.362C623 377.531 622.936 377.693 622.821 377.813C622.707 377.933 622.552 378 622.39 378V378Z" fill="#CACACA"/>
<defs>
<clipPath id="clip0_1861_392">
<rect width="34.1135" height="33.3192" fill="white" transform="translate(165.693 107.756)"/>
</clipPath>
</defs>
</svg>
