<svg xmlns="http://www.w3.org/2000/svg" viewBox="0 0 5282.32 947.19"><defs><style>.cls-1{fill:#2c67f2;}.cls-2{fill:#ff6f29;}</style></defs><g id="Camada_2" data-name="Camada 2"><g id="Camada_1-2" data-name="Camada 1"><path class="cls-1" d="M2752.69,300.12,3159.3,869.58l-.68.65L2752.74,542.67,2346.66,870.33l-.8-.48Q2548.87,585.56,2752.69,300.12Z"/><path class="cls-2" d="M3085.61,901.52q35.22,12.94,70.52,25.73l.49-.84-404-264.11L2347.51,927.16l.64.75q31.91-11.79,63.8-23.57c111-40.79,229.81-82.4,340.71-123.34Z"/><path class="cls-2" d="M112.15,200.28q-49.31,0-80.72-29.27T0,99.21Q0,55.47,31.43,27.73T112.15,0q49.92,0,81,27.73t31.13,71.48q0,44.39-31.13,72.72T112.15,200.28Z"/><path class="cls-1" d="M206.44,717.32q0,40.06,19.11,60.7t51.14,20.65a168.18,168.18,0,0,0,32.05-3.09q16-3.06,32.05-6.16V926.24a700.14,700.14,0,0,1-74.26,15.09,552,552,0,0,1-81.66,5.86q-38.82,0-70.56-12.94A149.45,149.45,0,0,1,60.09,897q-22.53-24.33-34.83-58.85T12.93,760.46V300.12H206.44Z"/><path class="cls-1" d="M1032.23,931.16H838.11V580.51q0-146.65-104.76-146.66-50.55,0-83.2,38.82t-32.67,98.6V931.16H422.76v-631H617.48V400H620Q689.6,284.72,822.7,284.71q209.5,0,209.53,260.06Z"/><path class="cls-1" d="M1452.86,946.57q-157.75,0-248-88.43t-90.29-240q0-156.53,93.67-245t253.29-88.43q157.13,0,246.5,88.43T1797.36,607q0,157.14-92.13,248.36T1452.86,946.57Zm4.94-512.72q-69,0-107.24,47.45t-38.2,134.34q0,181.8,146.67,181.79,139.88,0,139.89-186.72Q1598.92,433.85,1457.8,433.85Z"/><path class="cls-1" d="M2463.05,300.12l-234.8,631H2006.39l-223.69-631H1991L2100.69,689q18.48,66,21.55,112.16h2.47q4.32-43.74,22.81-108.46l112.16-392.55Z"/><path class="cls-1" d="M3424.08,717.32q0,40.06,19.1,60.7t51.15,20.65a168.16,168.16,0,0,0,32-3.09q16-3.06,32.05-6.16V926.24a700.14,700.14,0,0,1-74.26,15.09,552,552,0,0,1-81.66,5.86q-38.8,0-70.56-12.94A149.53,149.53,0,0,1,3277.72,897q-22.51-24.33-34.83-58.85t-12.33-77.65V300h193.51Z"/><path class="cls-1" d="M4198.6,671.1H3786.94q9.84,137.43,173.17,137.43,104.13,0,183-49.3V899.74q-87.52,46.83-227.4,46.83-152.83,0-237.26-84.74T3594.05,625.5q0-157.15,91.2-249t224.31-91.82q138,0,213.55,82t75.49,222.47ZM4018,551.55Q4018,416,3908.34,416q-46.85,0-81,38.83t-41.61,96.75Z"/><path class="cls-1" d="M5282.32,931.16H5088.19V571.27q0-137.41-101.06-137.42-48.07,0-78.27,41.28t-30.19,102.92V931.16H4683.93V567.57q0-133.71-99.22-133.72-49.92,0-79.8,39.43T4475,580.51V931.16H4280.28v-631H4475v98.6h2.47q30.19-50.54,84.74-82.27t119.25-31.74q133.7,0,183,117.7,72.11-117.69,212-117.7,205.83,0,205.84,253.9Z"/></g></g></svg>